HIERARCHY
ROOT joint_Root
{
	OFFSET 0.0 0.0 0.0
	CHANNELS 6 Xposition Yposition Zposition Zrotation Xrotation Yrotation 
	JOINT Hips
	{
		OFFSET -0.726466 93.3139 -2.00062
		CHANNELS 6 Xposition Yposition Zposition Zrotation Xrotation Yrotation 
		JOINT Spine
		{
			OFFSET 15.7357 0.0 0.0
			CHANNELS 6 Xposition Yposition Zposition Zrotation Xrotation Yrotation 
			JOINT Chest
			{
				OFFSET 8.98455 -0.406207 0.0
				CHANNELS 6 Xposition Yposition Zposition Zrotation Xrotation Yrotation 
				JOINT Neck
				{
					OFFSET 16.3773 0.0 0.0
					CHANNELS 6 Xposition Yposition Zposition Zrotation Xrotation Yrotation 
					JOINT Head
					{
						OFFSET 6.45672 0.0 0.0
						CHANNELS 6 Xposition Yposition Zposition Zrotation Xrotation Yrotation 
						End Site
						{
							OFFSET 0.0 0.0 0.0
						}
					}
				}
				JOINT Shoulder_L
				{
					OFFSET 12.9942 -0.242716 4.98039
					CHANNELS 6 Xposition Yposition Zposition Zrotation Xrotation Yrotation 
					JOINT UpperArm_L
					{
						OFFSET 5.34809 0.0 0.0
						CHANNELS 6 Xposition Yposition Zposition Zrotation Xrotation Yrotation 
						JOINT LowerArm_L
						{
							OFFSET 24.3286 1.87007e-05 0.0
							CHANNELS 6 Xposition Yposition Zposition Zrotation Xrotation Yrotation 
							JOINT Hand_L
							{
								OFFSET 22.2916 0.0 0.0
								CHANNELS 6 Xposition Yposition Zposition Zrotation Xrotation Yrotation 
								End Site
								{
									OFFSET 0.0 0.0 0.0
								}
							}
						}
					}
				}
				JOINT Shoulder_R
				{
					OFFSET 12.9945 -0.242716 -4.98039
					CHANNELS 6 Xposition Yposition Zposition Zrotation Xrotation Yrotation 
					JOINT UpperArm_R
					{
						OFFSET -5.34813 0.0 0.0
						CHANNELS 6 Xposition Yposition Zposition Zrotation Xrotation Yrotation 
						JOINT LowerArm_R
						{
							OFFSET -24.3289 0.000322201 0.0
							CHANNELS 6 Xposition Yposition Zposition Zrotation Xrotation Yrotation 
							JOINT Hand_R
							{
								OFFSET -22.2915 -0.000108084 0.0
								CHANNELS 6 Xposition Yposition Zposition Zrotation Xrotation Yrotation 
								End Site
								{
									OFFSET 0.0 0.0 0.0
								}
							}
						}
					}
				}
			}
		}
		JOINT UpperLeg_L
		{
			OFFSET -2.19248 -6.46944 0.0
			CHANNELS 6 Xposition Yposition Zposition Zrotation Xrotation Yrotation 
			JOINT LowerLeg_L
			{
				OFFSET 39.0811 0.0 -1.23785e-05
				CHANNELS 6 Xposition Yposition Zposition Zrotation Xrotation Yrotation 
				JOINT Foot_L
				{
					OFFSET 40.9854 0.0 -1.26872e-05
					CHANNELS 6 Xposition Yposition Zposition Zrotation Xrotation Yrotation 
					JOINT Toes_L
					{
						OFFSET 11.7543 0.0 0.0
						CHANNELS 6 Xposition Yposition Zposition Zrotation Xrotation Yrotation 
						End Site
						{
							OFFSET 0.0 0.0 0.0
						}
					}
				}
			}
		}
		JOINT UpperLeg_R
		{
			OFFSET -2.19251 6.46944 0.0
			CHANNELS 6 Xposition Yposition Zposition Zrotation Xrotation Yrotation 
			JOINT LowerLeg_R
			{
				OFFSET -39.0811 -0.00228153 -0.0401928
				CHANNELS 6 Xposition Yposition Zposition Zrotation Xrotation Yrotation 
				JOINT Foot_R
				{
					OFFSET -40.9854 0.0 0.0
					CHANNELS 6 Xposition Yposition Zposition Zrotation Xrotation Yrotation 
					JOINT Toes_R
					{
						OFFSET -11.7543 0.0 0.0
						CHANNELS 6 Xposition Yposition Zposition Zrotation Xrotation Yrotation 
						End Site
						{
							OFFSET 0.0 0.0 0.0
						}
					}
				}
			}
		}
	}
}
MOTION
Frames:	9
Frame Time:	0.0333333
0.000000 0.000000 0.000000 0.000000 0.000000 -0.000000 -0.520260 92.945800 -1.194890 89.093200 -2.261310 2.963250 15.735700 0.000005 -0.000001 95.764900 87.607000 -95.761900 8.984550 -0.406207 -0.000000 -3.004220 0.480261 0.018534 16.377300 -0.000001 -0.000001 5.380600 -2.318210 3.553950 6.456720 -0.000001 -0.000000 9.874030 -1.875990 -3.567200 12.994200 -0.242716 4.980390 -87.460300 -8.223880 -72.772300 5.348090 -0.000007 -0.000001 -81.202400 -31.138200 -92.289500 24.328600 0.000019 0.000005 16.600000 3.731330 -77.685600 22.291600 -0.000001 0.000005 13.342400 5.543680 -8.411400 12.994500 -0.242716 -4.980390 90.142700 -0.491914 -73.823600 -5.348130 -0.000001 -0.000004 -71.347700 -29.761300 -99.143900 -24.328900 0.000322 -0.000009 17.935600 5.789910 -72.690800 -22.291500 -0.000108 -0.000004 18.131700 5.372940 -2.077920 -2.192480 -6.469440 -0.000000 -176.589000 -8.322590 -1.683270 39.081100 -0.000007 -0.000012 -0.058632 0.187237 17.387400 40.985400 -0.000006 -0.000013 -0.191492 4.532830 -62.885300 11.754300 -0.000000 0.000003 -0.000001 -0.000020 -16.578300 -2.192510 6.469440 -0.000001 178.831000 11.334500 -179.579000 -39.081100 -0.002282 -0.040193 -0.055535 0.223660 14.745500 -40.985400 0.000008 0.000006 0.949594 7.223090 -62.429400 -11.754300 -0.000006 -0.000006 -0.005707 -0.068150 -19.346500
0.000000 0.000000 0.000000 0.000000 0.000000 -0.000000 -0.526062 92.951300 -1.254220 89.066700 -2.248250 2.905520 15.735700 0.000005 -0.000001 95.458800 87.603800 -95.453900 8.984550 -0.406207 -0.000000 -2.995480 0.455249 0.021784 16.377300 -0.000001 -0.000001 5.337160 -2.354470 3.562220 6.456720 -0.000001 -0.000000 9.812650 -1.837930 -3.561050 12.994200 -0.242716 4.980390 -87.448800 -8.239120 -72.728500 5.348090 -0.000007 -0.000001 -81.287300 -31.148200 -92.371800 24.328600 0.000019 0.000005 16.351100 3.704750 -77.579600 22.291600 -0.000001 0.000005 13.339100 5.542400 -8.352080 12.994500 -0.242716 -4.980390 90.131900 -0.453136 -73.774600 -5.348130 -0.000001 -0.000004 -71.126000 -29.882300 -99.114800 -24.328900 0.000322 -0.000009 17.934600 5.820400 -72.604500 -22.291500 -0.000108 -0.000004 18.165400 5.372230 -2.055740 -2.192480 -6.469440 -0.000000 -176.576000 -8.284010 -1.796480 39.081100 -0.000007 -0.000012 -0.057546 0.183568 17.405400 40.985400 -0.000006 -0.000013 -0.194559 4.521520 -62.849300 11.754300 -0.000000 0.000003 -0.000002 -0.000027 -16.578500 -2.192510 6.469440 -0.000001 178.888000 11.349700 -179.666000 -39.081100 -0.002282 -0.040193 -0.055652 0.224638 14.712100 -40.985400 0.000008 0.000006 0.952881 7.180830 -62.368500 -11.754300 -0.000006 -0.000006 -0.006033 -0.071137 -19.468300
0.000000 0.000000 0.000000 0.000000 0.000000 -0.000000 -0.523471 92.963900 -1.308220 89.094100 -2.256190 2.852640 15.735700 0.000005 -0.000001 95.460300 87.591800 -95.464200 8.984550 -0.406207 -0.000000 -2.971610 0.458481 0.004063 16.377300 -0.000001 -0.000001 5.282730 -2.359260 3.521560 6.456720 -0.000001 -0.000000 9.745720 -1.862960 -3.567410 12.994200 -0.242716 4.980390 -87.460000 -8.164470 -72.652900 5.348090 -0.000007 -0.000001 -81.249000 -31.089600 -92.218900 24.328600 0.000019 0.000005 16.245200 3.615690 -77.787900 22.291600 -0.000001 0.000005 13.461800 5.542740 -8.367910 12.994500 -0.242716 -4.980390 90.123100 -0.419751 -73.652500 -5.348130 -0.000001 -0.000004 -70.727900 -30.034400 -98.776400 -24.328900 0.000322 -0.000009 17.851700 5.710410 -72.833000 -22.291500 -0.000108 -0.000004 18.093800 5.369520 -1.971660 -2.192480 -6.469440 -0.000000 -176.617000 -8.309390 -1.830590 39.081100 -0.000007 -0.000012 -0.057482 0.184633 17.292900 40.985400 -0.000006 -0.000013 -0.193016 4.529510 -62.757000 11.754300 -0.000000 0.000003 -0.000002 -0.000023 -16.578400 -2.192510 6.469440 -0.000001 178.875000 11.354900 -179.729000 -39.081100 -0.002282 -0.040193 -0.055005 0.223094 14.653900 -40.985400 0.000008 0.000006 0.953413 7.210210 -62.303100 -11.754300 -0.000006 -0.000006 -0.005564 -0.066826 -19.292500
0.000000 0.000000 0.000000 0.000000 0.000000 -0.000000 -0.526588 92.968700 -1.361880 89.089900 -2.292980 2.822600 15.735700 0.000005 -0.000001 95.574900 87.556500 -95.584000 8.984550 -0.406207 -0.000000 -2.902150 0.475414 -0.006114 16.377300 -0.000001 -0.000001 5.168250 -2.380940 3.504210 6.456720 -0.000001 -0.000000 9.733490 -1.881760 -3.571680 12.994200 -0.242716 4.980390 -87.489900 -8.033980 -72.585400 5.348090 -0.000007 -0.000001 -80.958600 -31.080900 -91.550900 24.328600 0.000019 0.000005 16.131700 3.326190 -78.657200 22.291600 -0.000001 0.000005 13.639300 5.540760 -8.277410 12.994500 -0.242716 -4.980390 90.093000 -0.315433 -73.567500 -5.348130 -0.000001 -0.000004 -70.010100 -30.381500 -97.909100 -24.328900 0.000322 -0.000009 17.823200 5.434320 -73.588700 -22.291500 -0.000108 -0.000004 17.931400 5.365450 -1.846060 -2.192480 -6.469440 -0.000000 -176.621000 -8.330890 -1.900030 39.081100 -0.000007 -0.000012 -0.056828 0.182564 17.290000 40.985400 -0.000006 -0.000013 -0.194563 4.519870 -62.713600 11.754300 -0.000000 0.000003 -0.000002 -0.000026 -16.578500 -2.192510 6.469440 -0.000001 178.902000 11.378300 -179.808000 -39.081100 -0.002282 -0.040193 -0.054388 0.220692 14.656500 -40.985400 0.000008 0.000006 0.967623 7.217200 -62.259600 -11.754300 -0.000006 -0.000006 -0.005639 -0.067517 -19.320700
0.000000 0.000000 0.000000 0.000000 0.000000 -0.000000 -0.527334 92.979600 -1.423480 89.080900 -2.265940 2.797400 15.735700 0.000005 -0.000001 95.281200 87.512800 -95.300600 8.984550 -0.406207 -0.000000 -2.812760 0.459471 -0.027497 16.377300 -0.000001 -0.000001 4.957650 -2.439930 3.516230 6.456720 -0.000001 -0.000000 9.747940 -1.863490 -3.586090 12.994200 -0.242716 4.980390 -87.575000 -7.739950 -72.543800 5.348090 -0.000007 -0.000001 -80.182100 -31.148200 -90.124200 24.328600 0.000019 0.000005 15.651800 2.679960 -80.526200 22.291600 -0.000001 0.000005 13.580700 5.536730 -8.094810 12.994500 -0.242716 -4.980390 90.020300 -0.068008 -73.392500 -5.348130 -0.000001 -0.000004 -68.951200 -30.714400 -96.305200 -24.328900 0.000322 -0.000009 17.549100 4.794580 -75.196800 -22.291500 -0.000108 -0.000004 17.405800 5.358780 -1.642380 -2.192480 -6.469440 -0.000000 -176.622000 -8.294870 -1.947420 39.081100 -0.000007 -0.000012 -0.056767 0.182953 17.238000 40.985400 -0.000006 -0.000013 -0.204734 4.478730 -62.640500 11.754300 -0.000000 0.000003 -0.000001 -0.000022 -16.578300 -2.192510 6.469440 -0.000001 178.936000 11.319400 -179.835000 -39.081100 -0.002282 -0.040193 -0.052909 0.216300 14.574700 -40.985400 0.000008 0.000006 0.963662 7.174070 -62.179600 -11.754300 -0.000006 -0.000006 -0.005781 -0.068831 -19.374300
0.000000 0.000000 0.000000 0.000000 0.000000 -0.000000 -0.531903 92.980000 -1.492560 89.071900 -2.260390 2.783850 15.735700 0.000005 -0.000001 94.802100 87.454800 -94.834300 8.984550 -0.406207 -0.000000 -2.693510 0.428914 -0.054317 16.377300 -0.000001 -0.000001 4.751600 -2.456210 3.472470 6.456720 -0.000001 -0.000000 9.600950 -1.808000 -3.574650 12.994200 -0.242716 4.980390 -87.694800 -7.277270 -72.370300 5.348090 -0.000007 -0.000001 -78.723600 -31.049900 -87.558900 24.328600 0.000019 0.000005 14.571000 1.696770 -83.504000 22.291600 -0.000001 0.000005 13.945700 5.535080 -8.020750 12.994500 -0.242716 -4.980390 89.911300 0.292672 -73.142700 -5.348130 -0.000001 -0.000004 -67.370300 -30.916600 -93.669500 -24.328900 0.000322 -0.000009 17.237000 3.852770 -77.782100 -22.291500 -0.000108 -0.000004 17.208600 5.350270 -1.385270 -2.192480 -6.469440 -0.000000 -176.620000 -8.271050 -2.042560 39.081100 -0.000007 -0.000012 -0.056553 0.181674 17.290600 40.985400 -0.000006 -0.000013 -0.201011 4.492370 -62.613100 11.754300 -0.000000 0.000003 -0.000001 -0.000020 -16.578300 -2.192510 6.469440 -0.000001 178.973000 11.330800 -179.923000 -39.081100 -0.002282 -0.040193 -0.053041 0.216069 14.622400 -40.985400 0.000008 0.000006 0.973514 7.115160 -62.154700 -11.754300 -0.000006 -0.000006 -0.005831 -0.069289 -19.392900
0.000000 0.000000 0.000000 0.000000 0.000000 -0.000000 -0.524968 92.981100 -1.538320 89.091800 -2.286600 2.780540 15.735700 0.000005 -0.000001 94.447100 87.389100 -94.502700 8.984550 -0.406207 -0.000000 -2.559830 0.409754 -0.102027 16.377300 -0.000001 -0.000001 4.548640 -2.556010 3.506160 6.456720 -0.000001 -0.000000 9.516800 -1.789290 -3.716660 12.994200 -0.242716 4.980390 -87.897100 -6.582360 -72.238500 5.348090 -0.000007 -0.000001 -76.037100 -30.915000 -83.545100 24.328600 0.000019 0.000005 12.834000 0.559323 -87.547300 22.291600 -0.000001 0.000005 14.625200 5.539550 -8.221370 12.994500 -0.242716 -4.980390 89.748900 0.820103 -72.976100 -5.348130 -0.000001 -0.000004 -65.177900 -31.033700 -89.853300 -24.328900 0.000322 -0.000009 16.535800 2.586920 -81.358200 -22.291500 -0.000108 -0.000004 16.773200 5.343530 -1.183780 -2.192480 -6.469440 -0.000000 -176.636000 -8.369220 -2.075970 39.081100 -0.000007 -0.000012 -0.057049 0.183292 17.288500 40.985400 -0.000006 -0.000013 -0.193337 4.533000 -62.578600 11.754300 -0.000000 0.000003 -0.000003 -0.000047 -16.579400 -2.192510 6.469440 -0.000001 178.956000 11.272000 179.997000 -39.081100 -0.002282 -0.040193 -0.053561 0.217096 14.684800 -40.985400 0.000008 0.000006 0.970531 7.112910 -62.142900 -11.754300 -0.000006 -0.000006 -0.005999 -0.070828 -19.455700
0.000000 0.000000 0.000000 0.000000 0.000000 -0.000000 -0.517270 92.978500 -1.572430 89.081200 -2.321710 2.826240 15.735700 0.000005 -0.000001 94.606000 87.304600 -94.676400 8.984550 -0.406207 -0.000000 -2.392450 0.439002 -0.131586 16.377300 -0.000001 -0.000001 4.416420 -2.597990 3.479010 6.456720 -0.000001 -0.000000 9.406580 -1.838860 -3.816200 12.994200 -0.242716 4.980390 -88.180400 -5.734780 -72.362900 5.348090 -0.000007 -0.000001 -72.387500 -30.634900 -78.156600 24.328600 0.000019 0.000005 13.002600 -0.607436 -92.627800 22.291600 -0.000001 0.000005 15.008300 5.547210 -8.575040 12.994500 -0.242716 -4.980390 89.556500 1.430740 -72.776100 -5.348130 -0.000001 -0.000004 -62.075800 -30.780700 -84.619900 -24.328900 0.000322 -0.000009 15.879300 1.179760 -85.863200 -22.291500 -0.000108 -0.000004 16.888300 5.334360 -0.913073 -2.192480 -6.469440 -0.000000 -176.627000 -8.351580 -2.073660 39.081100 -0.000007 -0.000012 -0.056705 0.181600 17.341000 40.985400 -0.000006 -0.000013 -0.191574 4.505890 -62.587200 11.754300 -0.000000 0.000003 -0.000002 -0.000031 -16.578700 -2.192510 6.469440 -0.000001 178.946000 11.290600 -179.998000 -39.081100 -0.002282 -0.040193 -0.054441 0.219813 14.725500 -40.985400 0.000008 0.000006 0.974801 7.181920 -62.140800 -11.754300 -0.000006 -0.000006 -0.005639 -0.067524 -19.321000
0.000000 0.000000 0.000000 0.000000 0.000000 -0.000000 -0.514454 92.973800 -1.611240 89.069400 -2.354630 2.834400 15.735700 0.000005 -0.000001 94.527100 87.225600 -94.607500 8.984550 -0.406207 -0.000000 -2.234300 0.444853 -0.152134 16.377300 -0.000001 -0.000001 4.162900 -2.606800 3.571260 6.456720 -0.000001 -0.000000 9.415800 -1.791630 -4.100360 12.994200 -0.242716 4.980390 -88.442800 -4.908120 -72.372900 5.348090 -0.000007 -0.000001 -68.042600 -29.459300 -71.274000 24.328600 0.000019 0.000005 12.646300 -1.863220 -98.247300 22.291600 -0.000001 0.000005 15.418300 5.556430 -9.012900 12.994500 -0.242716 -4.980390 89.307000 2.221590 -72.670400 -5.348130 -0.000001 -0.000004 -57.942000 -30.079300 -78.095200 -24.328900 0.000322 -0.000009 14.752800 -0.271737 -91.034500 -22.291500 -0.000108 -0.000004 16.567100 5.333080 -0.876021 -2.192480 -6.469440 -0.000000 -176.627000 -8.333680 -2.135820 39.081100 -0.000007 -0.000012 -0.056880 0.181226 17.425100 40.985400 -0.000006 -0.000013 -0.191737 4.439120 -62.600500 11.754300 -0.000000 0.000003 -0.000003 -0.000050 -16.579400 -2.192510 6.469440 -0.000001 178.971000 11.257500 179.937000 -39.081100 -0.002282 -0.040193 -0.053754 0.216013 14.802900 -40.985400 0.000008 0.000006 0.984717 7.165470 -62.147300 -11.754300 -0.000006 -0.000006 -0.005756 -0.068600 -19.364800
